<svg height="1667" viewBox="-.002 -.001 300.21 131.033" width="2500" xmlns="http://www.w3.org/2000/svg"><g fill="#ed1c24"><path d="m193.564 50.855h-52.413c-1.038 0-1.557.779-1.557 1.557v4.152c0 1.038.779 1.556 1.557 1.556h39.18v21.796c-1.038-1.557-2.335-3.114-3.632-4.67-4.67-4.67-9.6-7.006-14.79-7.006-4.152 0-7.525 2.076-10.38 5.708-2.334 3.114-3.632 6.747-3.632 10.12s.52 7.784 3.114 11.935c3.114 4.93 8.303 6.487 12.974 6.487 5.967 0 10.897-4.151 10.897-9.6 0-3.114-1.556-5.709-4.41-7.525l-2.855-1.557v4.67c-.26 1.298-2.335 3.114-4.67 3.114-2.076 0-3.892-.778-5.19-2.075-.778-.779-1.297-2.336-1.038-3.374 0-1.556.52-2.854 1.557-4.151 1.298-1.557 2.595-2.335 4.67-2.335 5.19 0 9.601 2.335 13.234 7.524 2.854 4.411 4.41 8.563 4.41 13.233v10.898l7.785 4.67c.26.26.519.26.778.26 1.038 0 1.557-.778 1.557-1.557v-56.305h3.114c1.038 0 1.557-.778 1.557-1.557v-4.151c0-1.038-.779-1.817-1.817-1.817z"/><path d="m298.391 50.855h-66.425c-1.038 0-1.557.779-1.557 1.557v7.265c-6.486-6.746-12.195-10.12-17.384-10.12-4.93 0-9.082 1.039-12.714 3.893-3.374 2.595-5.45 5.968-5.45 9.86 0 11.676 12.974 11.417 16.347 9.86.52-.26 1.298-.779 2.076-.779 2.595 0 3.633 2.076 3.633 3.893 0 2.594-3.892 4.93-8.563 4.93-2.594 0-4.151-.779-5.19-2.336l-2.075-3.113-1.297 3.632c-.26.779-.779 1.816-.779 3.114 0 2.595 1.298 5.19 3.892 7.525 2.336 2.075 5.19 3.113 8.303 3.113 4.93 0 9.082-1.816 11.677-5.449 2.335-2.854 3.373-6.227 3.373-10.12 0-2.075-.779-4.41-2.595-7.005-2.076-3.114-4.67-4.67-7.525-4.67-1.037 0-2.335.26-3.632.778-.52.26-1.557.519-1.817.519-.518 0-1.297-.26-1.816-1.038-.519-.519-1.038-1.297-1.038-2.595 0-2.854 2.595-5.708 7.266-5.708h.259c3.114 0 6.227 1.557 9.082 4.411 2.335 2.335 4.151 4.67 5.708 7.265v41.256l7.784 4.67c.26.26.519.26.778.26 1.038 0 1.557-.778 1.557-1.557v-55.786h11.936v36.067l9.341 3.892h.519c.778 0 1.557-.52 1.557-1.557v-.26c1.557-10.638 6.227-17.903 14.011-22.314v2.076c0 1.556 0 5.448.26 7.524 0 1.298 0 2.076.26 2.854 0 4.152.518 10.38 1.816 15.05 2.594 8.822 7.005 10.898 10.119 10.898h.26c1.816 0 3.373-.52 4.41-1.557.52-.52 1.298-1.557 1.298-3.373 0-1.557-.26-2.855-.779-3.892l-.778-1.298-1.557.26c-1.557.519-2.335.519-2.335.26h-.26c-.519 0-.519 0-.778-.26-.519-.26-1.557-1.038-2.335-3.892-.52-2.076-.779-4.93-.779-6.487 0-11.676 2.336-20.498 6.228-22.315h.26c.518-.26 1.037-.778 1.037-1.557 0-.26 0-.519-.26-.778v-.26c-1.816-3.632-5.708-6.227-10.897-7.524h-1.038c-4.152.778-9.082 3.632-15.309 8.822-1.557 1.297-3.114 2.595-4.411 3.892v-14.271h36.326c1.038 0 1.557-.778 1.557-1.557v-4.151c.26-1.038-.52-1.817-1.557-1.817zm-175.922 19.201c0 1.817 0 3.373-.26 4.93a58.206 58.206 0 0 1 -5.189 20.239c-1.038 2.595-2.335 4.93-3.892 7.265-10.898 17.125-30.099 28.542-51.894 28.542-9.341 0-18.163-2.076-25.948-5.708-20.756-9.6-35.288-30.877-35.288-55.268 0-24.13 14.012-44.888 33.991-54.748-1.557 2.075-3.114 4.151-4.411 6.486 0 .26-.26.26-.26.52-.778.778-1.556 1.297-2.335 2.075-1.038.779-1.816 1.816-2.854 2.595l-.519.519-.519.519c-.26.26-.519.778-1.038 1.038-.519.778-1.297 1.556-1.816 2.335a45.542 45.542 0 0 0 -6.227 10.898c-.26.26-.26.778-.52 1.038-.259.519-.259 1.037-.518 1.297 0 .26-.26.519-.26.778-.26.779-.519 1.298-.778 2.076-.26.52-.26 1.038-.519 1.297 0 .26-.26.52-.26.779 0 .519-.259 1.038-.259 1.557l-.778 4.67c0 .52 0 .779-.26 1.298v6.227c0 16.606 7.525 31.656 19.72 41.256 9.341 7.525 21.017 12.195 33.731 12.195 11.677 0 22.315-3.632 31.137-10.12 6.487-4.67 11.676-10.638 15.568-17.643.52-1.038 1.038-1.817 1.557-2.855 3.114-6.486 4.93-13.492 4.93-21.017v-1.816c0-1.816 0-3.373-.26-5.19l.26.26c.779.778 1.557 1.297 2.335 2.076.779-1.298 1.557-2.336 2.336-3.633.519 2.335.778 4.67 1.038 7.265.259 2.336.259 4.152.259 5.968z"/></g><path d="m68.499 21.016-11.417-21.017c-18.941 8.561-31.915 27.504-31.915 49.559 0 11.157 3.373 21.536 9.082 30.099-.52-2.855-.52-5.709-.52-8.822.261-22.575 14.531-41.775 34.771-49.819z" fill="#f7941d"/><path d="m77.58 31.395c4.67-1.297 9.86-1.816 14.79-1.816 3.114 0 6.487.259 9.341.778l-.26-9.341-.518-18.682c-2.076-.26-4.411-.519-6.746-.519-10.38 0-19.98 3.373-27.764 8.822l6.227 11.417c-11.157 3.892-20.238 11.676-25.947 21.796-2.854 4.93-4.93 10.638-5.708 16.606 1.557-3.114 3.373-5.968 5.449-8.563 7.524-9.86 18.422-17.384 31.136-20.498z" fill="#ed1c24"/><g fill="#f7941d"><path d="m104.825 20.757.519 13.233c-4.411-1.298-8.822-2.076-13.752-2.076-9.082 0-17.644 2.595-25.169 7.006-9.34 5.708-16.606 14.79-20.239 25.428 3.633-4.93 8.044-9.341 13.233-12.714 7.525-4.93 16.607-7.784 26.207-7.784 7.265 0 14.011 1.556 20.239 4.41a41.05 41.05 0 0 1 12.454 8.563l7.266-10.898 9.34-14.27c-8.302-6.747-18.681-10.898-30.098-10.898z"/><path d="m116.501 63.829v1.816c0 10.898-4.41 19.98-4.93 21.017s-1.038 1.817-1.557 2.855c-3.892 7.005-9.081 12.973-15.568 17.644-8.822 6.227-19.46 10.12-31.137 10.12-12.714 0-24.65-4.412-33.731-12.196-11.936-9.86-19.72-24.65-19.72-41.256v-6.227c0-.52 0-.779.26-1.298l.778-4.67c0-.52.26-1.038.26-1.557 0-.26.259-.52.259-.779.26-.519.26-1.037.519-1.297.26-.778.519-1.557.778-2.076 0-.26.26-.519.26-.778.26-.52.26-1.038.519-1.297s.26-.779.519-1.038c1.557-3.892 3.892-7.525 6.227-10.898.519-.779 1.297-1.557 1.816-2.335.26-.26.52-.779 1.038-1.038.26-.26.26-.52.52-.52.259-.259.259-.518.518-.518.779-1.038 1.816-1.817 2.854-2.595.779-.778 1.557-1.297 2.336-2.076 0 .26-.26.26-.26.52s-.26.518-.26.518c-3.113 6.228-5.189 13.752-5.967 21.536-.26 2.076-.26 4.152-.26 6.487 0 28.023 16.347 50.597 36.586 50.597h2.076c2.854 0 5.708-.519 8.562-1.038 13.752-3.632 23.872-16.346 23.872-31.136v-.779c-.26-8.822-3.892-16.865-9.86-22.314 4.151 0 8.303.778 12.195 1.816 7.525 1.816 14.27 5.449 20.239 10.12l.26.259c-.26 1.038 0 2.854 0 4.41z"/><path d="m116.501 63.829v1.816c0 11.417-5.19 21.277-5.19 21.277-.518 1.038-1.037 1.816-1.556 2.854-3.892 7.006-9.341 12.974-15.828 17.644-9.081 6.746-19.98 10.12-31.396 10.12-12.455 0-24.39-4.411-33.99-12.196-12.457-10.119-19.721-25.428-19.721-41.514s7.264-31.396 19.72-41.516l.518-.519c0 .26-.26.26-.26.52s-.259.259-.259.518c-12.195 10.12-19.2 24.91-19.2 40.997s7.005 30.877 19.46 41.256c9.34 7.784 21.536 11.936 33.731 11.936 11.157 0 22.055-3.374 31.137-10.12 6.486-4.67 11.676-10.638 15.568-17.644.519-1.038 1.038-1.816 1.297-2.854 0 0 5.19-9.6 5.19-21.017v-1.817c0-1.816 0-3.373-.26-5.189v-.26l.26.26.26.26c.518 2.075.518 3.632.518 5.189z"/></g></svg>